<?xml version="1.0" encoding="utf-8"?>
<!-- Generator: Adobe Illustrator 21.0.0, SVG Export Plug-In . SVG Version: 6.00 Build 0)  -->
<svg version="1.1" id="Layer_1" xmlns="http://www.w3.org/2000/svg" xmlns:xlink="http://www.w3.org/1999/xlink" x="0px" y="0px"
	 viewBox="0 0 300 50" style="enable-background:new 0 0 300 50;" xml:space="preserve">
<style type="text/css">
	.st0{fill:#FF3333;}
	.st1{fill:#333399;}
</style>
<g>
	<path class="st0" d="M0.8,23.3V7h2.5l5.2,10.9V7h2.4v16.3H8.3L3.2,12.6v10.6H0.8z"/>
	<path class="st0" d="M19.6,17.3v-2.8h5.6V21c-0.5,0.7-1.3,1.3-2.4,1.8c-0.5,0.3-1,0.4-1.5,0.6c-0.5,0.1-1,0.2-1.6,0.2
		c-1.3,0-2.5-0.4-3.5-1.1c-1-0.7-1.7-1.7-2.2-3.1c-0.5-1.3-0.8-2.8-0.8-4.4c0-1.7,0.3-3.2,0.8-4.5c0.6-1.3,1.4-2.4,2.4-3.1
		c0.8-0.5,1.9-0.8,3.1-0.8c1.6,0,2.8,0.4,3.7,1.3c0.9,0.9,1.5,2,1.7,3.5l-2.6,0.6c-0.2-0.8-0.5-1.4-1-1.9c-0.5-0.5-1.1-0.7-1.9-0.7
		c-1.1,0-2,0.5-2.7,1.4c-0.3,0.5-0.6,1-0.8,1.7c-0.2,0.7-0.3,1.5-0.3,2.4c0,1.9,0.3,3.4,1,4.4c0.7,1,1.6,1.5,2.6,1.5
		c0.5,0,1.1-0.1,1.6-0.4s1-0.6,1.4-1v-2.1H19.6z"/>
	<path class="st0" d="M39,23.3h-2.8l-1.1-3.7H30L29,23.3h-2.7l5-16.3h2.7L39,23.3z M29.7,5.7l1.8-3.3h2.3l1.8,3.3h-2l-1-1.7
		l-0.9,1.7H29.7z M34.3,16.8l-1.8-6.1l-1.7,6.1H34.3z"/>
	<path class="st0" d="M40.4,23.3V7h2.5l5.2,10.9V7h2.4v16.3H48l-5.2-10.6v10.6H40.4z"/>
	<path class="st0" d="M58.3,23.3V7h2.6v6.4h5.1V7h2.6v16.3h-2.6v-7.1h-5.1v7.1H58.3z"/>
	<path class="st0" d="M82.7,23.3h-2.8l-1.1-3.7h-5.1l-1.1,3.7h-2.7l5-16.3h2.7L82.7,23.3z M73.3,2.1H76l1.8,3.3h-1.5L73.3,2.1z
		 M77.9,16.8l-1.8-6.1l-1.7,6.1H77.9z"/>
	<path class="st0" d="M84.1,23.3V7h2.5l5.2,10.9V7h2.4v16.3h-2.6l-5.2-10.6v10.6H84.1z"/>
	<path class="st0" d="M102.9,17.3v-2.8h5.6V21c-0.5,0.7-1.3,1.3-2.4,1.8c-0.5,0.3-1,0.4-1.5,0.6c-0.5,0.1-1,0.2-1.6,0.2
		c-1.3,0-2.5-0.4-3.5-1.1c-1-0.7-1.7-1.7-2.2-3.1c-0.5-1.3-0.8-2.8-0.8-4.4c0-1.7,0.3-3.2,0.8-4.5c0.6-1.3,1.4-2.4,2.4-3.1
		c0.8-0.5,1.9-0.8,3.1-0.8c1.6,0,2.8,0.4,3.7,1.3c0.9,0.9,1.5,2,1.7,3.5l-2.6,0.6c-0.2-0.8-0.5-1.4-1-1.9c-0.5-0.5-1.1-0.7-1.9-0.7
		c-1.1,0-2,0.5-2.7,1.4c-0.3,0.5-0.6,1-0.8,1.7c-0.2,0.7-0.3,1.5-0.3,2.4c0,1.9,0.3,3.4,1,4.4c0.7,1,1.6,1.5,2.6,1.5
		c0.5,0,1.1-0.1,1.6-0.4c0.5-0.3,1-0.6,1.4-1v-2.1H102.9z"/>
	<path class="st0" d="M115.8,23.3V7h2.5l5.2,10.9V7h2.4v16.3h-2.6l-5.2-10.6v10.6H115.8z"/>
	<path class="st0" d="M128.7,23.3V7h2.6v6.4h5.1V7h2.6v16.3h-2.6v-7.1h-5.1v7.1H128.7z"/>
	<path class="st0" d="M153.1,23.3h-2.8l-1.1-3.7h-5.1l-1.1,3.7h-2.7l5-16.3h2.7L153.1,23.3z M143.7,2.1h2.7l1.8,3.3h-1.5L143.7,2.1z
		 M148.3,16.8l-1.8-6.1l-1.7,6.1H148.3z"/>
	<path class="st0" d="M159.4,23.3V7h2.5l5.2,10.9V7h2.4v16.3H167l-5.2-10.6v10.6H159.4z"/>
	<path class="st0" d="M182.5,9.4v6.2c0,1.9-0.1,3.3-0.2,4.1c-0.1,0.8-0.4,1.5-0.8,2.1c-0.4,0.6-0.9,1-1.5,1.3
		c-0.6,0.3-1.5,0.5-2.5,0.5c-1.2,0-2.1-0.2-2.8-0.5c-0.6-0.4-1.1-0.8-1.5-1.4c-0.4-0.6-0.6-1.2-0.7-1.8c-0.2-1-0.3-2.4-0.3-4.1V7
		h2.6v8.8c0,1.5,0,2.4,0.1,2.7c0.1,0.6,0.4,1.2,0.8,1.6c0.4,0.4,1,0.6,1.7,0.6c0.7,0,1.3-0.2,1.6-0.6c0.4-0.4,0.6-0.9,0.7-1.5
		c0.1-0.6,0.1-1.5,0.1-2.7V7h2.6v0.9l0.2-0.2l0.3-0.4l0.2-0.4C183,7,182.9,7,182.8,7l-0.1,0l-0.2,0c-0.1,0-0.2-0.1-0.3-0.1
		c0,0-0.1-0.1-0.1-0.1c0-0.1-0.1-0.1-0.2-0.2c-0.1-0.2-0.2-0.4-0.2-0.6c0-0.1,0-0.2,0-0.3c0.1-0.4,0.3-0.6,0.7-0.8
		c0.2-0.1,0.5-0.2,0.7-0.2h0.1l0.3,0c0.1,0,0.1,0,0.2,0c0.1,0,0.1,0.1,0.2,0.1c0.1,0,0.2,0.1,0.3,0.2c0.1,0.1,0.1,0.2,0.2,0.3
		l0.2,0.4c0,0.2,0.1,0.4,0.1,0.5c0,0.1,0,0.2,0,0.2c0,0.1,0,0.1,0,0.2c-0.1,0.4-0.2,0.8-0.4,1.1c-0.2,0.3-0.4,0.6-0.8,0.9l-0.6,0.5
		L182.5,9.4z"/>
	<path class="st0" d="M194.9,8.4c0.1-0.1,0.2-0.1,0.2-0.2l0.3-0.4l0.2-0.4c-0.1,0.1-0.2,0.1-0.3,0.1l-0.1,0l-0.2,0
		c-0.1,0-0.2-0.1-0.3-0.1l-0.1-0.1L194.4,7c-0.1-0.2-0.2-0.4-0.2-0.6c0-0.1,0-0.2,0-0.3c0.1-0.4,0.3-0.6,0.7-0.8
		c0.2-0.1,0.5-0.2,0.7-0.2h0.1l0.3,0c0.1,0,0.1,0,0.2,0l0.2,0.1c0.1,0,0.2,0.1,0.3,0.2c0.1,0.1,0.1,0.2,0.2,0.3l0.2,0.4
		c0,0.2,0.1,0.4,0.1,0.5c0,0.1,0,0.2,0,0.2c0,0.1,0,0.2,0,0.2c-0.1,0.2-0.1,0.4-0.2,0.6c-0.1,0.2-0.2,0.3-0.3,0.5
		c-0.2,0.3-0.4,0.6-0.8,0.9l-0.3,0.2c1,1.5,1.5,3.4,1.5,5.9c0,2.6-0.6,4.7-1.7,6.2c-1.1,1.5-2.6,2.2-4.5,2.2c-1.9,0-3.4-0.7-4.5-2.2
		c-1.1-1.5-1.7-3.5-1.7-6.1c0-1.7,0.2-3.1,0.6-4.2c0.3-0.8,0.7-1.6,1.2-2.2c0.5-0.7,1.1-1.2,1.7-1.5c0.8-0.4,1.7-0.6,2.8-0.6
		C192.5,6.7,193.8,7.2,194.9,8.4z M187.3,15.1c0,1.8,0.3,3.2,1,4.2c0.7,1,1.5,1.4,2.6,1.4c1,0,1.9-0.5,2.5-1.4
		c0.3-0.5,0.6-1,0.7-1.8c0.2-0.7,0.3-1.6,0.3-2.5c0-1.8-0.3-3.2-1-4.2c-0.6-0.9-1.5-1.4-2.6-1.4c-1,0-1.9,0.5-2.6,1.4
		C187.7,11.9,187.3,13.3,187.3,15.1z M190.8,5.5h-1.5l1.8-3.3h2.7L190.8,5.5z"/>
	<path class="st0" d="M207.3,17.3l2.5,1c-0.4,1.8-1,3.1-1.9,4c-0.9,0.9-2,1.3-3.4,1.3c-1.7,0-3.1-0.7-4.2-2.2
		c-1.1-1.5-1.6-3.5-1.6-6.1c0-2.7,0.5-4.8,1.6-6.3s2.5-2.3,4.3-2.3c1.5,0,2.8,0.6,3.8,1.8c0.6,0.7,1,1.7,1.3,3l-2.6,0.8
		c-0.1-0.9-0.4-1.5-0.9-2c-0.5-0.5-1.1-0.7-1.8-0.7c-0.9,0-1.7,0.4-2.3,1.3c-0.6,0.9-0.9,2.3-0.9,4.2c0,2.1,0.3,3.5,0.9,4.4
		c0.6,0.9,1.3,1.3,2.3,1.3c0.7,0,1.3-0.3,1.7-0.8S207,18.5,207.3,17.3z"/>
	<path class="st0" d="M220.2,23.3L215.6,7h2.8l3.2,12.1L224.8,7h2.7L223,23.3H220.2z"/>
	<path class="st0" d="M228.8,23.3V7h2.6v16.3H228.8z"/>
	<path class="st0" d="M233.8,23.3V7h9.5v2.8h-6.9v3.6h6.4v2.7h-6.4v4.4h7.1v2.7H233.8z M235.7,5.7l1.8-3.3h2.3l1.8,3.3h-2l-1-1.7
		l-0.9,1.7H235.7z M237.4,28.1v-3.1h2.4v3.1H237.4z"/>
	<path class="st0" d="M248.6,23.3V9.7h-3.8V7H255v2.8h-3.8v13.6H248.6z"/>
	<path class="st0" d="M261.6,23.3V7h2.5l5.2,10.9V7h2.4v16.3h-2.6L264,12.6v10.6H261.6z"/>
	<path class="st0" d="M286,23.3h-2.8l-1.1-3.7H277l-1.1,3.7h-2.7l5-16.3h2.7L286,23.3z M281.3,16.8l-1.8-6.1l-1.7,6.1H281.3z"/>
	<path class="st0" d="M287.3,23.3V7h3.9l2.3,11.1L295.8,7h3.9v16.3h-2.4V10.4l-2.5,12.8h-2.5l-2.5-12.8v12.8H287.3z"/>
</g>
<g>
	<path class="st1" d="M2,45.2v-9.4h-2.3v-1.9H6v1.9H3.6v9.4H2z"/>
	<path class="st1" d="M7,45.2V33.8h3.4c0.8,0,1.5,0.1,1.8,0.3c0.4,0.2,0.7,0.6,0.9,1.1c0.2,0.5,0.3,1.1,0.3,1.8
		c0,0.9-0.2,1.6-0.5,2.1c-0.3,0.6-0.9,0.9-1.6,1c0.3,0.3,0.6,0.6,0.8,0.9c0.1,0.2,0.2,0.4,0.4,0.7c0.2,0.3,0.3,0.7,0.5,1.2l1,2.2
		h-1.9L11,42.7c-0.4-0.9-0.7-1.4-0.8-1.7c-0.2-0.2-0.3-0.4-0.5-0.5c-0.2-0.1-0.4-0.1-0.8-0.1H8.6v4.7H7z M8.6,38.6h1.2
		c0.8,0,1.2,0,1.4-0.1c0.2-0.1,0.3-0.3,0.5-0.5c0.1-0.1,0.1-0.2,0.1-0.4c0-0.1,0-0.3,0-0.5c0-0.4-0.1-0.7-0.2-0.9
		c-0.1-0.2-0.3-0.4-0.6-0.5c-0.2,0-0.6,0-1.2,0H8.6V38.6z"/>
	<path class="st1" d="M14.9,33.8h1.6V40c0,1,0,1.7,0.1,1.9c0.1,0.4,0.2,0.8,0.5,1.1c0.3,0.3,0.6,0.4,1.1,0.4c0.4,0,0.8-0.1,1-0.4
		c0.2-0.3,0.4-0.6,0.4-1c0.1-0.4,0.1-1.1,0.1-1.9v-6.3h1.6v6c0,1.3,0,2.3-0.1,2.9c-0.1,0.6-0.2,1-0.5,1.4c-0.2,0.4-0.5,0.7-0.9,0.9
		c-0.4,0.2-0.9,0.3-1.5,0.3c-0.7,0-1.3-0.1-1.7-0.4c-0.4-0.2-0.7-0.6-0.9-1c-0.2-0.4-0.4-0.8-0.5-1.3c-0.1-0.7-0.2-1.6-0.2-2.9V33.8
		z"/>
	<path class="st1" d="M22.9,45.2V33.8h1.6l3.2,7.6v-7.6h1.5v11.4h-1.6l-3.2-7.4v7.4H22.9z"/>
	<path class="st1" d="M34.6,41v-1.9H38v4.5c-0.3,0.5-0.8,0.9-1.5,1.2c-0.3,0.2-0.6,0.3-1,0.4c-0.3,0.1-0.6,0.1-1,0.1
		c-0.8,0-1.5-0.2-2.2-0.7c-0.6-0.5-1.1-1.2-1.4-2.1c-0.3-0.9-0.5-1.9-0.5-3c0-1.2,0.2-2.2,0.5-3.1c0.3-0.9,0.8-1.6,1.5-2.1
		c0.5-0.4,1.2-0.6,1.9-0.6c1,0,1.8,0.3,2.3,0.9c0.5,0.6,0.9,1.4,1.1,2.5l-1.6,0.4c-0.1-0.5-0.3-1-0.6-1.3c-0.3-0.3-0.7-0.5-1.2-0.5
		c-0.7,0-1.2,0.3-1.7,1c-0.2,0.3-0.4,0.7-0.5,1.2c-0.1,0.5-0.2,1-0.2,1.6c0,1.3,0.2,2.4,0.6,3c0.4,0.7,1,1,1.6,1
		c0.3,0,0.7-0.1,1-0.3c0.3-0.2,0.6-0.4,0.9-0.7V41H34.6z"/>
	<path class="st1" d="M44.3,45.2v-9.4H42v-1.9h6.3v1.9h-2.3v9.4H44.3z"/>
	<path class="st1" d="M56.4,45.2h-1.7L54,42.6h-3.2l-0.7,2.6h-1.7l3.1-11.4h1.7L56.4,45.2z M50.6,32.9l1.1-2.3h1.4l1.1,2.3h-1.2
		l-0.6-1.2l-0.6,1.2H50.6z M53.5,40.7l-1.1-4.2l-1.1,4.2H53.5z"/>
	<path class="st1" d="M57.2,45.2V33.8h2.4l1.4,7.8l1.4-7.8h2.4v11.4h-1.5v-8.9l-1.6,8.9h-1.5l-1.6-8.9v8.9H57.2z"/>
	<path class="st1" d="M71.3,45.2v-9.4h-2.3v-1.9h6.3v1.9h-2.3v9.4H71.3z"/>
	<path class="st1" d="M76.3,45.2V33.8h1.6v4.5H81v-4.5h1.6v11.4H81v-5h-3.1v5H76.3z"/>
	<path class="st1" d="M83.9,39.6c0-1.2,0.1-2.1,0.4-2.9c0.2-0.6,0.4-1.1,0.7-1.6c0.3-0.5,0.7-0.8,1-1c0.5-0.3,1.1-0.4,1.7-0.4
		c1.1,0,2.1,0.5,2.8,1.6c0.7,1,1.1,2.5,1.1,4.3c0,1.8-0.3,3.3-1,4.3s-1.6,1.6-2.8,1.6c-1.2,0-2.1-0.5-2.8-1.6
		C84.2,42.8,83.9,41.4,83.9,39.6z M85.5,39.5c0,1.3,0.2,2.3,0.6,2.9c0.4,0.7,0.9,1,1.6,1c0.6,0,1.1-0.3,1.6-1
		c0.2-0.3,0.4-0.7,0.5-1.2c0.1-0.5,0.2-1.1,0.2-1.7c0-1.3-0.2-2.2-0.6-2.9c-0.4-0.7-0.9-1-1.6-1c-0.6,0-1.2,0.3-1.6,1
		C85.7,37.2,85.5,38.2,85.5,39.5z M85.9,32.9l1.1-2.3h1.4l1.1,2.3h-1.2l-0.6-1.2l-0.6,1.2H85.9z"/>
	<path class="st1" d="M92.8,45.2V33.8h1.6l3.2,7.6v-7.6h1.5v11.4h-1.6l-3.2-7.4v7.4H92.8z"/>
	<path class="st1" d="M104.5,41v-1.9h3.4v4.5c-0.3,0.5-0.8,0.9-1.5,1.2c-0.3,0.2-0.6,0.3-1,0.4c-0.3,0.1-0.6,0.1-1,0.1
		c-0.8,0-1.5-0.2-2.2-0.7c-0.6-0.5-1.1-1.2-1.4-2.1c-0.3-0.9-0.5-1.9-0.5-3c0-1.2,0.2-2.2,0.5-3.1c0.3-0.9,0.8-1.6,1.5-2.1
		c0.5-0.4,1.2-0.6,1.9-0.6c1,0,1.8,0.3,2.3,0.9c0.5,0.6,0.9,1.4,1.1,2.5l-1.6,0.4c-0.1-0.5-0.3-1-0.6-1.3c-0.3-0.3-0.7-0.5-1.2-0.5
		c-0.7,0-1.2,0.3-1.7,1c-0.2,0.3-0.4,0.7-0.5,1.2c-0.1,0.5-0.2,1-0.2,1.6c0,1.3,0.2,2.4,0.6,3c0.4,0.7,1,1,1.6,1
		c0.3,0,0.7-0.1,1-0.3c0.3-0.2,0.6-0.4,0.9-0.7V41H104.5z"/>
	<path class="st1" d="M114.2,45.2v-9.4h-2.3v-1.9h6.3v1.9h-2.3v9.4H114.2z"/>
	<path class="st1" d="M119.1,45.2V33.8h1.6v11.4H119.1z"/>
	<path class="st1" d="M122.2,45.2V33.8h1.6l3.2,7.6v-7.6h1.5v11.4h-1.6l-3.2-7.4v7.4H122.2z"/>
	<path class="st1" d="M135,45.2v-9.4h-2.3v-1.9h6.3v1.9h-2.3v9.4H135z"/>
	<path class="st1" d="M140.8,32.8l-1,0l1.1-2.3h1.7L140.8,32.8z M140,45.2V33.8h1.6v11.4H140z"/>
	<path class="st1" d="M143.1,45.2V33.8h1.6l3.2,7.6v-7.6h1.5v11.4h-1.6l-3.2-7.4v7.4H143.1z"/>
	<path class="st1" d="M154.1,33.8h2.9c0.7,0,1.2,0.1,1.5,0.2c0.4,0.2,0.8,0.5,1.2,1c0.3,0.5,0.6,1.1,0.7,1.8
		c0.2,0.7,0.3,1.6,0.3,2.7c0,0.9-0.1,1.7-0.2,2.4c-0.2,0.8-0.5,1.5-0.8,2c-0.3,0.4-0.7,0.7-1.1,0.9l-0.3,0.1l-0.3,0.1l-0.4,0l-0.4,0
		h-3V33.8z M155.7,35.7v7.5h1.2l0.6,0h0.1c0,0,0.1,0,0.1,0l0.2-0.1c0.2-0.1,0.5-0.2,0.6-0.5c0.2-0.2,0.3-0.6,0.4-1.1
		c0.1-0.5,0.2-1.2,0.2-2.1c0-0.9-0.1-1.5-0.2-2c-0.1-0.5-0.3-0.8-0.5-1.1c-0.2-0.3-0.4-0.5-0.7-0.6c-0.2-0.1-0.7-0.1-1.3-0.1H155.7z
		"/>
	<path class="st1" d="M162.1,33.8h1.6V40c0,1,0,1.7,0.1,1.9c0.1,0.4,0.2,0.8,0.5,1.1c0.3,0.3,0.6,0.4,1.1,0.4c0.4,0,0.8-0.1,1-0.4
		c0.2-0.3,0.4-0.6,0.4-1c0.1-0.4,0.1-1.1,0.1-1.9v-6.3h1.6v6c0,1.3,0,2.3-0.1,2.9c-0.1,0.6-0.2,1-0.5,1.4c-0.2,0.4-0.5,0.7-0.9,0.9
		c-0.4,0.2-0.9,0.3-1.5,0.3c-0.7,0-1.3-0.1-1.7-0.4c-0.4-0.2-0.7-0.6-0.9-0.9c-0.2-0.4-0.4-0.8-0.5-1.3c-0.1-0.7-0.2-1.6-0.2-2.9
		V33.8z M164.5,48.5v-2.2h1.5v2.2H164.5z"/>
	<path class="st1" d="M170.1,45.2V33.8h1.6l3.2,7.6v-7.6h1.5v11.4h-1.6l-3.2-7.4v7.4H170.1z"/>
	<path class="st1" d="M181.7,41v-1.9h3.4v4.5c-0.3,0.5-0.8,0.9-1.5,1.2c-0.3,0.2-0.6,0.3-1,0.4c-0.3,0.1-0.6,0.1-1,0.1
		c-0.8,0-1.5-0.2-2.2-0.7s-1.1-1.2-1.4-2.1c-0.3-0.9-0.5-1.9-0.5-3c0-1.2,0.2-2.2,0.5-3.1c0.3-0.9,0.8-1.6,1.5-2.1
		c0.5-0.4,1.2-0.6,1.9-0.6c1,0,1.8,0.3,2.3,0.9c0.5,0.6,0.9,1.4,1.1,2.5l-1.6,0.4c-0.1-0.5-0.3-1-0.6-1.3c-0.3-0.3-0.7-0.5-1.2-0.5
		c-0.7,0-1.2,0.3-1.7,1c-0.2,0.3-0.4,0.7-0.5,1.2c-0.1,0.5-0.2,1-0.2,1.6c0,1.3,0.2,2.4,0.6,3c0.4,0.7,1,1,1.6,1
		c0.3,0,0.7-0.1,1-0.3c0.3-0.2,0.6-0.4,0.9-0.7V41H181.7z"/>
	<path class="st1" d="M196,43.7c0.4,0.4,0.8,0.7,1.3,1l-0.6,1.6c-0.2-0.1-0.5-0.2-0.7-0.4l-1.1-1c-0.5,0.3-1.1,0.5-1.7,0.5
		c-1.2,0-2.2-0.5-2.8-1.5c-0.7-1-1-2.5-1-4.3c0-1.8,0.3-3.3,1-4.3c0.7-1,1.6-1.6,2.8-1.6c1.2,0,2.1,0.5,2.8,1.5c0.7,1,1,2.5,1,4.3
		c0,0.5,0,1-0.1,1.4c0,0.4-0.1,0.8-0.2,1.2c-0.1,0.3-0.2,0.6-0.3,0.8C196.3,43.2,196.2,43.5,196,43.7z M194.7,42.5
		c0.2-0.3,0.3-0.7,0.5-1.3c0.1-0.5,0.2-1.1,0.2-1.7c0-1.3-0.2-2.3-0.6-2.9c-0.4-0.6-0.9-1-1.6-1c-0.6,0-1.2,0.3-1.6,1
		c-0.4,0.7-0.6,1.6-0.6,2.9c0,1.3,0.2,2.3,0.6,3c0.4,0.7,0.9,1,1.5,1c0.2,0,0.4-0.1,0.7-0.2c-0.3-0.3-0.6-0.5-1-0.7l0.4-1.3
		C193.8,41.5,194.3,41.9,194.7,42.5z"/>
	<path class="st1" d="M198.2,33.8h1.6V40c0,1,0,1.7,0.1,1.9c0.1,0.4,0.2,0.8,0.5,1.1c0.3,0.3,0.6,0.4,1.1,0.4c0.4,0,0.8-0.1,1-0.4
		c0.2-0.3,0.4-0.6,0.4-1c0.1-0.4,0.1-1.1,0.1-1.9v-6.3h1.6v6c0,1.3,0,2.3-0.1,2.9c-0.1,0.6-0.2,1-0.5,1.4c-0.2,0.4-0.5,0.7-0.9,0.9
		c-0.4,0.2-0.9,0.3-1.5,0.3c-0.7,0-1.3-0.1-1.7-0.4c-0.4-0.2-0.7-0.6-0.9-1c-0.2-0.4-0.4-0.8-0.5-1.3c-0.1-0.7-0.2-1.6-0.2-2.9V33.8
		z"/>
	<path class="st1" d="M205.9,39.6c0-1.2,0.1-2.1,0.4-2.9c0.2-0.6,0.4-1.1,0.7-1.6c0.3-0.5,0.7-0.8,1-1c0.5-0.3,1.1-0.4,1.7-0.4
		c1.1,0,2.1,0.5,2.8,1.6c0.7,1,1.1,2.5,1.1,4.3c0,1.8-0.3,3.3-1,4.3c-0.7,1-1.6,1.6-2.8,1.6c-1.2,0-2.1-0.5-2.8-1.6
		C206.2,42.8,205.9,41.4,205.9,39.6z M207.5,39.5c0,1.3,0.2,2.3,0.6,2.9c0.4,0.7,0.9,1,1.6,1c0.6,0,1.1-0.3,1.6-1
		c0.2-0.3,0.4-0.7,0.5-1.2c0.1-0.5,0.2-1.1,0.2-1.7c0-1.3-0.2-2.2-0.6-2.9c-0.4-0.7-0.9-1-1.6-1c-0.6,0-1.2,0.3-1.6,1
		C207.7,37.2,207.5,38.2,207.5,39.5z M207.9,32.9l1.1-2.3h1.4l1.1,2.3h-1.2l-0.6-1.2l-0.6,1.2H207.9z M212.1,31.2h-1l1.1-2.3h1.7
		L212.1,31.2z"/>
	<path class="st1" d="M219.9,41l1.5,0.7c-0.2,1.2-0.6,2.2-1.2,2.8c-0.6,0.6-1.3,0.9-2.1,0.9c-1,0-1.9-0.5-2.6-1.5
		c-0.7-1-1-2.4-1-4.2c0-1.9,0.3-3.3,1-4.4c0.7-1.1,1.6-1.6,2.7-1.6c0.9,0,1.7,0.4,2.4,1.2c0.4,0.5,0.6,1.2,0.8,2.1l-1.6,0.5
		c-0.1-0.6-0.3-1.1-0.6-1.4c-0.3-0.3-0.7-0.5-1.1-0.5c-0.6,0-1.1,0.3-1.4,0.9s-0.6,1.6-0.6,2.9c0,1.4,0.2,2.5,0.5,3.1
		c0.4,0.6,0.8,0.9,1.4,0.9c0.4,0,0.8-0.2,1.1-0.6C219.5,42.5,219.7,41.9,219.9,41z"/>
	<path class="st1" d="M229.5,41v-1.9h3.4v4.5c-0.3,0.5-0.8,0.9-1.5,1.2c-0.3,0.2-0.6,0.3-1,0.4c-0.3,0.1-0.6,0.1-1,0.1
		c-0.8,0-1.5-0.2-2.2-0.7c-0.6-0.5-1.1-1.2-1.4-2.1c-0.3-0.9-0.5-1.9-0.5-3c0-1.2,0.2-2.2,0.5-3.1c0.3-0.9,0.8-1.6,1.5-2.1
		c0.5-0.4,1.2-0.6,1.9-0.6c1,0,1.8,0.3,2.3,0.9c0.5,0.6,0.9,1.4,1.1,2.5l-1.6,0.4c-0.1-0.5-0.3-1-0.6-1.3c-0.3-0.3-0.7-0.5-1.2-0.5
		c-0.7,0-1.2,0.3-1.7,1c-0.2,0.3-0.4,0.7-0.5,1.2c-0.1,0.5-0.2,1-0.2,1.6c0,1.3,0.2,2.4,0.6,3c0.4,0.7,1,1,1.6,1
		c0.3,0,0.7-0.1,1-0.3c0.3-0.2,0.6-0.4,0.9-0.7V41H229.5z"/>
	<path class="st1" d="M234.4,45.2V33.8h1.6v11.4H234.4z"/>
	<path class="st1" d="M244.6,45.2h-1.7l-0.7-2.6H239l-0.7,2.6h-1.7l3.1-11.4h1.7L244.6,45.2z M241.7,40.7l-1.1-4.2l-1.1,4.2H241.7z"
		/>
	<path class="st1" d="M250.5,45.2l-2.8-11.4h1.7l2,8.4l1.9-8.4h1.7l-2.8,11.4H250.5z"/>
	<path class="st1" d="M255.8,45.2V33.8h1.6v11.4H255.8z"/>
	<path class="st1" d="M259,45.2V33.8h5.9v1.9h-4.3v2.5h4v1.9h-4v3.1h4.4v1.9H259z M260.1,32.9l1.1-2.3h1.4l1.1,2.3h-1.2l-0.6-1.2
		l-0.6,1.2H260.1z M261.1,48.5v-2.2h1.5v2.2H261.1z"/>
	<path class="st1" d="M268.1,45.2v-9.4h-2.3v-1.9h6.3v1.9h-2.3v9.4H268.1z"/>
	<path class="st1" d="M276.1,45.2V33.8h1.6l3.2,7.6v-7.6h1.5v11.4h-1.6l-3.2-7.4v7.4H276.1z"/>
	<path class="st1" d="M291.2,45.2h-1.7l-0.7-2.6h-3.2l-0.7,2.6h-1.7l3.1-11.4h1.7L291.2,45.2z M288.3,40.7l-1.1-4.2l-1.1,4.2H288.3z
		"/>
	<path class="st1" d="M292,45.2V33.8h2.4l1.4,7.8l1.4-7.8h2.4v11.4h-1.5v-8.9l-1.6,8.9h-1.5l-1.6-8.9v8.9H292z"/>
</g>
</svg>
